<svg width="1728" height="1144" viewBox="0 0 1728 1144" fill="none" xmlns="http://www.w3.org/2000/svg">
<line x1="79.775" y1="7.06177" x2="79.775" y2="1144" stroke="#D6D6D6" stroke-opacity="0.3"/>
<line x1="172.625" y1="7.06177" x2="172.625" y2="1144" stroke="#D6D6D6" stroke-opacity="0.3"/>
<line x1="265.475" y1="7.06177" x2="265.475" y2="1144" stroke="#D6D6D6" stroke-opacity="0.3"/>
<line x1="358.325" y1="7.06177" x2="358.325" y2="1144" stroke="#D6D6D6" stroke-opacity="0.3"/>
<line x1="451.175" y1="7.06177" x2="451.175" y2="1144" stroke="#D6D6D6" stroke-opacity="0.3"/>
<line x1="544.025" y1="7.06177" x2="544.025" y2="1144" stroke="#D6D6D6" stroke-opacity="0.3"/>
<line x1="636.875" y1="7.06177" x2="636.875" y2="1144" stroke="#D6D6D6" stroke-opacity="0.3"/>
<line x1="729.725" y1="7.06177" x2="729.725" y2="1144" stroke="#D6D6D6" stroke-opacity="0.3"/>
<line x1="822.575" y1="7.06177" x2="822.575" y2="1144" stroke="#D6D6D6" stroke-opacity="0.3"/>
<line x1="915.425" y1="7.06177" x2="915.425" y2="1144" stroke="#D6D6D6" stroke-opacity="0.3"/>
<line x1="1008.27" y1="7.06177" x2="1008.27" y2="1144" stroke="#D6D6D6" stroke-opacity="0.3"/>
<line x1="1101.12" y1="7.06177" x2="1101.12" y2="1144" stroke="#D6D6D6" stroke-opacity="0.3"/>
<line x1="1193.97" y1="7.06177" x2="1193.97" y2="1144" stroke="#D6D6D6" stroke-opacity="0.3"/>
<line x1="1286.82" y1="7.06177" x2="1286.82" y2="1144" stroke="#D6D6D6" stroke-opacity="0.3"/>
<line x1="1379.67" y1="7.06177" x2="1379.67" y2="1144" stroke="#D6D6D6" stroke-opacity="0.3"/>
<line x1="1472.52" y1="7.06177" x2="1472.52" y2="1144" stroke="#D6D6D6" stroke-opacity="0.3"/>
<line x1="1565.37" y1="7.06177" x2="1565.37" y2="1144" stroke="#D6D6D6" stroke-opacity="0.3"/>
<line x1="1658.22" y1="7.06177" x2="1658.22" y2="1144" stroke="#D6D6D6" stroke-opacity="0.3"/>
<line x1="1747.95" y1="7.5769" x2="-20" y2="7.57675" stroke="#D6D6D6" stroke-opacity="0.3"/>
<line x1="1747.95" y1="101.731" x2="-20" y2="101.731" stroke="#D6D6D6" stroke-opacity="0.3"/>
<line x1="1747.95" y1="195.885" x2="-20" y2="195.885" stroke="#D6D6D6" stroke-opacity="0.3"/>
<line x1="1747.95" y1="290.039" x2="-20" y2="290.038" stroke="#D6D6D6" stroke-opacity="0.3"/>
<line x1="1747.95" y1="384.192" x2="-20" y2="384.192" stroke="#D6D6D6" stroke-opacity="0.3"/>
<line x1="1747.95" y1="478.346" x2="-20" y2="478.346" stroke="#D6D6D6" stroke-opacity="0.3"/>
<line x1="1747.95" y1="572.5" x2="-20" y2="572.5" stroke="#D6D6D6" stroke-opacity="0.3"/>
<line x1="1747.95" y1="666.654" x2="-20" y2="666.654" stroke="#D6D6D6" stroke-opacity="0.3"/>
<line x1="1747.95" y1="760.808" x2="-20" y2="760.807" stroke="#D6D6D6" stroke-opacity="0.3"/>
<line x1="1747.95" y1="854.962" x2="-20" y2="854.962" stroke="#D6D6D6" stroke-opacity="0.3"/>
<line x1="1747.95" y1="949.116" x2="-20" y2="949.116" stroke="#D6D6D6" stroke-opacity="0.3"/>
<line x1="1747.95" y1="1043.27" x2="-20" y2="1043.27" stroke="#D6D6D6" stroke-opacity="0.3"/>
<line x1="1747.95" y1="1137.42" x2="-20" y2="1137.42" stroke="#D6D6D6" stroke-opacity="0.3"/>
<rect width="1738" height="796.967" transform="translate(-10 7.06177)" fill="url(#paint0_linear_180_177)" fill-opacity="0.5"/>
<defs>
<linearGradient id="paint0_linear_180_177" x1="869.524" y1="-505.185" x2="868.697" y2="796.966" gradientUnits="userSpaceOnUse">
<stop stop-color="#1C65EE"/>
<stop offset="1" stop-color="#0057FF" stop-opacity="0"/>
</linearGradient>
</defs>
</svg>
