<svg width="1772" height="1127" viewBox="0 0 1772 1127" fill="none" xmlns="http://www.w3.org/2000/svg">
<line x1="6.7998" y1="6.95682" x2="6.79976" y2="1127" stroke="#0C2A64"/>
<line x1="99.3999" y1="6.95682" x2="99.3999" y2="1127" stroke="#0C2A64"/>
<line x1="192" y1="6.95682" x2="192" y2="1127" stroke="#0C2A64"/>
<line x1="284.6" y1="6.95682" x2="284.6" y2="1127" stroke="#0C2A64"/>
<line x1="377.2" y1="6.95682" x2="377.2" y2="1127" stroke="#0C2A64"/>
<line x1="469.8" y1="6.95682" x2="469.8" y2="1127" stroke="#0C2A64"/>
<line x1="562.4" y1="6.95682" x2="562.4" y2="1127" stroke="#0C2A64"/>
<line x1="655" y1="6.95682" x2="655" y2="1127" stroke="#0C2A64"/>
<line x1="747.6" y1="6.95682" x2="747.6" y2="1127" stroke="#0C2A64"/>
<line x1="840.2" y1="6.95682" x2="840.2" y2="1127" stroke="#0C2A64"/>
<line x1="932.8" y1="6.95682" x2="932.8" y2="1127" stroke="#0C2A64"/>
<line x1="1025.4" y1="6.95682" x2="1025.4" y2="1127" stroke="#0C2A64"/>
<line x1="1118" y1="6.95682" x2="1118" y2="1127" stroke="#0C2A64"/>
<line x1="1210.6" y1="6.95682" x2="1210.6" y2="1127" stroke="#0C2A64"/>
<line x1="1303.2" y1="6.95682" x2="1303.2" y2="1127" stroke="#0C2A64"/>
<line x1="1395.8" y1="6.95682" x2="1395.8" y2="1127" stroke="#0C2A64"/>
<line x1="1488.4" y1="6.95682" x2="1488.4" y2="1127" stroke="#0C2A64"/>
<line x1="1581" y1="6.95682" x2="1581" y2="1127" stroke="#0C2A64"/>
<line x1="1673.6" y1="6.95682" x2="1673.6" y2="1127" stroke="#0C2A64"/>
<line x1="1766.2" y1="6.95682" x2="1766.2" y2="1127" stroke="#0C2A64"/>
<line x1="1762.97" y1="6.92322" x2="0.000122027" y2="6.92306" stroke="#0C2A64"/>
<line x1="1762.97" y1="99.7694" x2="0.000122027" y2="99.7692" stroke="#0C2A64"/>
<line x1="1762.97" y1="192.616" x2="0.000122027" y2="192.615" stroke="#0C2A64"/>
<line x1="1762.97" y1="285.462" x2="0.000122027" y2="285.462" stroke="#0C2A64"/>
<line x1="1762.97" y1="378.308" x2="0.000122027" y2="378.308" stroke="#0C2A64"/>
<line x1="1762.97" y1="471.154" x2="0.000122027" y2="471.154" stroke="#0C2A64"/>
<line x1="1762.97" y1="564" x2="0.000122027" y2="564" stroke="#0C2A64"/>
<line x1="1762.97" y1="656.846" x2="0.000122027" y2="656.846" stroke="#0C2A64"/>
<line x1="1762.97" y1="749.692" x2="0.000122027" y2="749.692" stroke="#0C2A64"/>
<line x1="1762.97" y1="842.539" x2="0.000122027" y2="842.539" stroke="#0C2A64"/>
<line x1="1762.97" y1="935.385" x2="0.000122027" y2="935.385" stroke="#0C2A64"/>
<line x1="1762.97" y1="1028.23" x2="0.000122027" y2="1028.23" stroke="#0C2A64"/>
<line x1="1762.97" y1="1121.08" x2="0.000122027" y2="1121.08" stroke="#0C2A64"/>
<rect width="1772" height="606" fill="url(#paint0_linear_89_57)"/>
<defs>
<linearGradient id="paint0_linear_89_57" x1="886.534" y1="-384.134" x2="886.065" y2="606" gradientUnits="userSpaceOnUse">
<stop stop-color="#0C2A64"/>
<stop offset="1" stop-color="#0057FF" stop-opacity="0"/>
</linearGradient>
</defs>
</svg>
